# xmcd
#
# Track frame offsets:
#	182
#	10790
#	23275
#	34267
#	46770
#	57487
#	67760
#	80590
#	92190
#	103872
#	118207
#	131082
#	144620
#	164527
#	175135
#	187992
#	201032
#	219972
#	231497
#	249807
#
# Disc length: 3554 seconds
#
# Revision: 18
# Processed by: cddbd v1.5.2PL0 Copyright (c) Steve Scherf et al.
# Submitted via: audiograbber 1.83.01
#
DISCID=0f0de014
DTITLE=Monkees - Greatest Hits
DYEAR=1995
DGENRE=Oldies
TTITLE0=(Theme From) The Monkees
TTITLE1=Last Train To Clarksville
TTITLE2=I Wanna Be Free
TTITLE3=I'm A Believer
TTITLE4=(I'm Not Your) Steppin' Stone  (Single)
TTITLE5=Mary, Mary
TTITLE6=A Little Bit Me, A Little Bit You
TTITLE7=The Girl I Knew Somewhere
TTITLE8=Randy Scouse Git
TTITLE9=Pleasant Valley Sunday  (Single)
TTITLE10=Words  (Single)
TTITLE11=Daydream Believer
TTITLE12=Goin' Down
TTITLE13=Valleri
TTITLE14=D.W. Washburn
TTITLE15=It's Nice To Be With You
TTITLE16=Porpoise Song  (Single)
TTITLE17=Listen To The Band  (Single)
TTITLE18=That Was Then, This Is Now
TTITLE19=Heart And Soul
EXTD=
EXTT0=
EXTT1=
EXTT2=
EXTT3=
EXTT4=
EXTT5=
EXTT6=
EXTT7=
EXTT8=
EXTT9=
EXTT10=
EXTT11=
EXTT12=
EXTT13=
EXTT14=
EXTT15=
EXTT16=
EXTT17=
EXTT18=
EXTT19=
PLAYORDER=
